<svg width="59" height="27" viewBox="0 0 59 27" fill="none" xmlns="http://www.w3.org/2000/svg">
<path d="M12.53 13.45H19.99V11.88H12.53V13.45ZM12.53 13.45V6.43V7.96L14.19 7.94M12.53 13.45H14.19V7.94M14.19 7.94V6.44M14.19 7.94H19.42V6.44H14.19M14.19 6.44H12.53V1H19.99V2.55H12.53L14.19 2.52V1V6.44Z" stroke="#35B2A6" stroke-width="0.43" stroke-miterlimit="10"/>
<path d="M2.69 13.45H1V8.54H2.69V7.03H1V1H5.7C7.03 1 8.07 1.33 8.83 1.99C9.58 2.65 9.96 3.57 9.96 4.74C9.96 5.6 9.75 6.33 9.33 6.93C8.91 7.53 8.32 7.95 7.55 8.2L10.08 13.45H8.2L5.88 8.53H2.69V13.45ZM2.69 2.51V7.02H5.72C6.5 7.02 7.11 6.82 7.54 6.42C7.97 6.02 8.19 5.46 8.19 4.75C8.19 4.04 7.97 3.47 7.53 3.09C7.09 2.71 6.48 2.51 5.71 2.51H2.7H2.69Z" stroke="#35B2A6" stroke-width="0.43" stroke-miterlimit="10"/>
<path d="M22.56 1V13.45H24.25V1H22.56ZM22.56 1V2.55H30.07V1H22.56ZM29.14 8.16H22.56V6.63H29.14V8.16Z" stroke="#9BD2C6" stroke-width="0.43" stroke-miterlimit="10"/>
<path d="M22.57 13.45V26.2999H24.26V13.45H22.57ZM24.25 26.29V24.6699H16.26V26.29H24.25Z" stroke="#9BD2C6" stroke-width="0.43" stroke-miterlimit="10"/>
<path d="M42.25 26.2899C43.43 26.2899 44.47 26.0199 45.35 25.4899C46.23 24.9599 46.92 24.2099 47.42 23.2499C47.91 22.2899 48.16 21.1699 48.16 19.8799C48.16 18.5899 47.91 17.4699 47.4 16.4999C46.9 15.5399 46.19 14.7799 45.29 14.2399C44.39 13.6999 43.35 13.4299 42.16 13.4299C41.22 13.4299 40.37 13.6099 39.61 13.9599C38.85 14.3099 38.22 14.7999 37.72 15.4299C37.22 16.0599 36.89 16.7999 36.74 17.6499H38.55C38.78 16.8299 39.22 16.1999 39.88 15.7399C40.53 15.2799 41.32 15.0499 42.22 15.0499C43.06 15.0499 43.79 15.2499 44.42 15.6399C45.05 16.0399 45.53 16.5899 45.88 17.3099C46.22 18.0299 46.4 18.8699 46.4 19.8499C46.4 20.8299 46.23 21.6599 45.88 22.3799C45.53 23.0999 45.05 23.6599 44.42 24.0599C43.79 24.4599 43.06 24.6499 42.23 24.6499C41.31 24.6499 40.52 24.4199 39.85 23.9699C39.18 23.5199 38.73 22.9099 38.5 22.1399H36.71C36.88 22.9699 37.23 23.6899 37.75 24.3099C38.27 24.9299 38.92 25.4099 39.7 25.7599C40.48 26.1099 41.33 26.2799 42.27 26.2799L42.25 26.2899Z" stroke="#35B2A6" stroke-width="0.43" stroke-miterlimit="10"/>
<path d="M57.81 15.1999V13.6499H48.63V15.1999H57.81ZM52.37 13.6499V26.0999H54.06V13.6499H52.37Z" stroke="#35B2A6" stroke-width="0.43" stroke-miterlimit="10"/>
<path d="M34.63 26.2901H26.98V24.7201H34.63V26.2901ZM34.63 26.2901V19.2701V20.8001L32.93 20.7801M34.63 26.2901H32.93V20.7801M32.93 20.7801V19.2801M32.93 20.7801H27.57V19.2801H32.93M32.93 19.2801H34.63V13.8401H26.98V15.3901H34.63L32.93 15.3601V13.8401V19.2801Z" stroke="#35B2A6" stroke-width="0.44" stroke-miterlimit="10"/>
<path d="M1 7.03003V8.53003" stroke="#35B2A6" stroke-width="0.43" stroke-miterlimit="10"/>
<path d="M1 2.51H2.69V1" stroke="#35B2A6" stroke-width="0.43" stroke-miterlimit="10"/>
</svg>
